<?xml version="1.0" encoding="UTF-8"?>
<svg xmlns="http://www.w3.org/2000/svg" xmlns:xlink="http://www.w3.org/1999/xlink" width="50px" height="50px" viewBox="0 0 50 50" version="1.1">
<g id="surface1">
<path style=" stroke:none;fill-rule:nonzero;fill:rgb(74.509804%,9.803922%,19.215686%);fill-opacity:1;" d="M 50 25 C 50 38.808594 38.808594 50 25 50 C 11.191406 50 0 38.808594 0 25 C 0 11.191406 11.191406 0 25 0 C 38.808594 0 50 11.191406 50 25 Z M 50 25 "/>
<path style=" stroke:none;fill-rule:nonzero;fill:rgb(100%,100%,100%);fill-opacity:1;" d="M 44.445312 27.777344 C 44.445312 29.3125 43.199219 30.554688 41.667969 30.554688 L 8.332031 30.554688 C 6.800781 30.554688 5.554688 29.3125 5.554688 27.777344 L 5.554688 22.222656 C 5.554688 20.6875 6.800781 19.445312 8.332031 19.445312 L 41.667969 19.445312 C 43.199219 19.445312 44.445312 20.6875 44.445312 22.222656 Z M 44.445312 27.777344 "/>
</g>
</svg>
